<?xml version="1.0" encoding="utf-8"?>
<!-- Svg Vector Icons : http://www.onlinewebfonts.com/icon -->
<!DOCTYPE svg PUBLIC "-//W3C//DTD SVG 1.1//EN" "http://www.w3.org/Graphics/SVG/1.1/DTD/svg11.dtd">
<svg version="1.1" xmlns="http://www.w3.org/2000/svg" xmlns:xlink="http://www.w3.org/1999/xlink" x="0px" y="0px" viewBox="0 0 1000 1000" enable-background="new 0 0 1000 1000" xml:space="preserve">
<metadata> Svg Vector Icons : http://www.onlinewebfonts.com/icon </metadata>
<g><path d="M186.9,518.7c22.8,2.6,44.3-5.7,59.5-20.7L444,569.1c2,34.8,28.9,64.1,64.6,68.1c40,4.5,76.1-24.3,80.6-64.3c0.3-2.8,0.4-5.6,0.4-8.4l166.8-121.7c8.3,4.7,17.6,7.8,27.7,9c40,4.5,76.1-24.3,80.6-64.3c4.5-40-24.3-76.1-64.3-80.6c-40-4.5-76.1,24.3-80.6,64.3c-1.4,12.8,0.6,25.2,5.2,36.3l-152.1,111c-11.6-14.1-28.5-23.9-48.1-26.1c-27.7-3.1-53.6,9.8-68.4,31.3l-189.2-68c0.1-0.4,0.1-0.8,0.1-1.2c4.5-40-24.3-76.1-64.3-80.6c-40-4.5-76.1,24.3-80.6,64.3C118.1,478,147,514.2,186.9,518.7z M766.7,376.4c1.6-14.2,14.4-24.4,28.6-22.8c14.2,1.6,24.4,14.4,22.8,28.6c-1.6,14.2-14.5,24.4-28.7,22.8C775.3,403.4,765.1,390.6,766.7,376.4z M491.1,561.8c1.6-14.2,14.4-24.4,28.6-22.8c14.2,1.6,24.4,14.4,22.8,28.6c-1.6,14.2-14.4,24.4-28.6,22.8C499.8,588.9,489.5,576,491.1,561.8z M169.4,443.3c1.6-14.2,14.4-24.4,28.6-22.8c14.2,1.6,24.4,14.5,22.8,28.7c-1.6,14.2-14.5,24.4-28.6,22.8C178,470.3,167.8,457.5,169.4,443.3z"/><path d="M183.3,699.6c40,4.5,76.1-24.3,80.6-64.3c1.5-13.6-0.8-26.7-6.1-38.3l56-49.7l-50.5-18.1l-37.9,33.5c-7.8-4.2-16.6-7-25.9-8c-40-4.5-76.1,24.3-80.6,64.3C114.5,658.9,143.4,695.1,183.3,699.6z"/><path d="M800.3,684.6c40,4.5,76.1-24.3,80.6-64.3c4.5-40-24.3-76.1-64.3-80.6c-17.9-2-35.1,2.7-49,12.1l-62.7-42.2L664.5,539l74.7,50.3c-1.5,4.7-2.6,9.5-3.2,14.6C731.5,643.9,760.4,680.1,800.3,684.6z"/><path d="M394.2,476.2l40.9-36.2c10,7.5,22.1,12.6,35.4,14.1c18.1,2,35.4-2.8,49.4-12.4l61.6,41.5l40.4-29.5l-73.8-49.7c1.5-4.5,2.5-9.3,3-14.2c4.5-40-24.3-76.1-64.3-80.6c-40-4.5-76.1,24.3-80.6,64.3c-1.1,9.5-0.2,18.7,2.2,27.4L343.8,458L394.2,476.2z"/><path d="M966.5,820H57V156.5c0-13-10.5-23.5-23.5-23.5c-13,0-23.5,10.5-23.5,23.5v686.9c0,13,10.5,23.5,23.5,23.5h933c13,0,23.5-10.5,23.5-23.5S979.5,820,966.5,820z"/></g>
</svg>